<svg xmlns="http://www.w3.org/2000/svg" width="1280" height="360" viewBox="0 0 1280 360" fill="none">
  <rect width="1280" height="360" rx="28" fill="#fbfaf6"/>
  <rect x="0.5" y="0.5" width="1279" height="359" rx="27.5" stroke="#0a0a08" stroke-opacity="0.14"/>

  <path d="M78 286H1202" stroke="#0a0a08" stroke-opacity="0.14" stroke-width="1.5"/>
  <path d="M78 74H1202" stroke="#0a0a08" stroke-opacity="0.08" stroke-width="1"/>

  <g transform="translate(78 92)">
    <rect width="176" height="176" rx="36" fill="#ffffff" stroke="#0a0a08" stroke-opacity="0.18"/>
    <circle cx="88" cy="88" r="58" stroke="#0a0a08" stroke-width="6"/>
    <line x1="46" y1="46" x2="130" y2="130" stroke="#0d4225" stroke-width="14" stroke-linecap="square"/>
    <line x1="130" y1="46" x2="46" y2="130" stroke="#0d4225" stroke-width="14" stroke-linecap="square"/>
    <circle cx="88" cy="88" r="12" fill="#ffffff" stroke="#0a0a08" stroke-width="4"/>
  </g>

  <g transform="translate(302 104)">
    <text x="0" y="78" fill="#0a0a08"
      font-family="Cormorant Garamond, Georgia, 'Times New Roman', serif"
      font-size="92"
      font-weight="500"
      letter-spacing="5.5">Calibr</text>

    <g transform="translate(360 5)">
      <circle cx="44" cy="44" r="32" stroke="#0a0a08" stroke-width="4"/>
      <line x1="20" y1="20" x2="68" y2="68" stroke="#0d4225" stroke-width="9" stroke-linecap="square"/>
      <line x1="68" y1="20" x2="20" y2="68" stroke="#0d4225" stroke-width="9" stroke-linecap="square"/>
      <circle cx="44" cy="44" r="6.5" fill="#ffffff" stroke="#0a0a08" stroke-width="2.5"/>
    </g>

    <rect x="470" y="16" width="112" height="50" rx="25" fill="#0d4225"/>
    <text x="526" y="49" text-anchor="middle" fill="#fbfaf6"
      font-family="'JetBrains Mono', 'SFMono-Regular', Consolas, monospace"
      font-size="22"
      font-weight="700"
      letter-spacing="4">SDK</text>

    <text x="2" y="130" fill="#3b3a35"
      font-family="'JetBrains Mono', 'SFMono-Regular', Consolas, monospace"
      font-size="21"
      letter-spacing="0.5">Apply CalibrX calibration exports locally with Python and OpenCV.</text>
  </g>

  <g transform="translate(302 246)">
    <rect width="126" height="32" rx="16" fill="#ffffff" stroke="#0a0a08" stroke-opacity="0.18"/>
    <text x="63" y="21" text-anchor="middle" fill="#0a0a08"
      font-family="'JetBrains Mono', 'SFMono-Regular', Consolas, monospace"
      font-size="13"
      font-weight="700"
      letter-spacing="1.5">PINHOLE</text>

    <rect x="144" width="178" height="32" rx="16" fill="#ffffff" stroke="#0a0a08" stroke-opacity="0.18"/>
    <text x="233" y="21" text-anchor="middle" fill="#0a0a08"
      font-family="'JetBrains Mono', 'SFMono-Regular', Consolas, monospace"
      font-size="13"
      font-weight="700"
      letter-spacing="1.5">PINHOLE WIDE</text>

    <rect x="340" width="128" height="32" rx="16" fill="#ffffff" stroke="#0a0a08" stroke-opacity="0.18"/>
    <text x="404" y="21" text-anchor="middle" fill="#0d4225"
      font-family="'JetBrains Mono', 'SFMono-Regular', Consolas, monospace"
      font-size="13"
      font-weight="800"
      letter-spacing="1.5">FISHEYE</text>
  </g>
</svg>
